<svg width="17" height="16" viewBox="0 0 17 16" fill="none" xmlns="http://www.w3.org/2000/svg">
<path d="M8.33334 9.52118C9.08813 9.52118 9.70001 8.9093 9.70001 8.15451C9.70001 7.39972 9.08813 6.78784 8.33334 6.78784C7.57855 6.78784 6.96667 7.39972 6.96667 8.15451C6.96667 8.9093 7.57855 9.52118 8.33334 9.52118Z" fill="#007BC1"/>
<path d="M8.33333 10.9545C12.3834 10.9545 15.6667 9.70089 15.6667 8.15449C15.6667 6.60809 12.3834 5.35449 8.33333 5.35449C4.28325 5.35449 1 6.60809 1 8.15449C1 9.70089 4.28325 10.9545 8.33333 10.9545Z" stroke="#007BC1"/>
<path d="M5.90848 9.55448C7.93352 13.062 10.6608 15.2785 12 14.5053C13.3392 13.7321 12.7833 10.262 10.7582 6.75448C8.73318 3.247 6.0059 1.03043 4.66668 1.80363C3.32746 2.57682 3.88343 6.047 5.90848 9.55448Z" stroke="#007BC1"/>
<path d="M5.90852 6.75447C3.88347 10.2619 3.3275 13.7321 4.66672 14.5053C6.00594 15.2785 8.73322 13.0619 10.7583 9.55447C12.7833 6.04699 13.3393 2.57681 12.0001 1.80361C10.6608 1.03041 7.93356 3.24699 5.90852 6.75447Z" stroke="#007BC1"/>
</svg>
