<svg width="220" height="46" viewBox="0 0 220 46" fill="none" xmlns="http://www.w3.org/2000/svg">
<g clip-path="url(#clip0_503_74204)">
<path d="M21.5174 31.2403C25.2983 31.2403 28.3634 28.193 28.3634 24.434C28.3634 20.675 25.2983 17.6277 21.5174 17.6277C17.7364 17.6277 14.6714 20.675 14.6714 24.434C14.6714 28.193 17.7364 31.2403 21.5174 31.2403Z" fill="#007BC1"/>
<path d="M41.0622 20.0907C41.9353 24.0044 41.6091 28.0904 40.1261 31.816C38.643 35.5415 36.0721 38.7339 32.7482 40.977C29.4244 43.22 25.5018 44.4097 21.492 44.3909C17.4821 44.3721 13.571 43.1457 10.2683 40.8716C6.96562 38.5974 4.42468 35.3811 2.97668 31.6418C1.52868 27.9024 1.24079 23.8136 2.15055 19.9083C3.06031 16.0029 5.12552 12.4623 8.07695 9.74781C11.0284 7.03335 14.7291 5.27102 18.6968 4.69054C18.8665 5.27547 19.1807 5.80827 19.6105 6.23983C20.2951 6.91988 21.221 7.30155 22.186 7.30155C23.151 7.30155 24.0769 6.91988 24.7615 6.23983C25.3408 5.66377 25.7053 4.90672 25.7944 4.09466C25.9243 3.13414 25.6674 2.16134 25.0801 1.39027C24.4928 0.619204 23.6232 0.11302 22.6627 -0.0169215C21.7022 -0.146864 20.7294 0.11008 19.9583 0.697385C19.1873 1.28469 18.6811 2.15425 18.5511 3.11476C14.2608 3.70878 10.2491 5.58215 7.03946 8.49046C3.82984 11.3988 1.57133 15.207 0.558617 19.4182C-0.454099 23.6294 -0.174 28.0481 1.36237 32.0977C2.89874 36.1474 5.62004 39.6399 9.17121 42.1196C12.7224 44.5994 16.9385 45.9512 21.2695 45.9987C25.6006 46.0462 29.8453 44.7872 33.45 42.386C37.0547 39.9847 39.852 36.5527 41.4768 32.5377C43.1017 28.5228 43.4786 24.1113 42.5585 19.8789C41.6493 15.9417 39.616 12.3535 36.7056 9.55028C39.0232 12.6403 40.5218 16.2662 41.0622 20.0907ZM24.3113 3.90927C24.2736 4.40941 24.0574 4.87934 23.7022 5.23345C23.4102 5.52895 23.0388 5.73333 22.6329 5.82177C22.2271 5.91022 21.8042 5.87892 21.4158 5.73169C21.0274 5.58445 20.6901 5.32761 20.4448 4.99235C20.1996 4.65709 20.0569 4.25783 20.0342 3.84306C20.0198 3.54331 20.0676 3.24382 20.1748 2.96349C20.2819 2.68316 20.4459 2.42807 20.6566 2.21432C20.8549 2.01374 21.091 1.85449 21.3512 1.74581C21.6115 1.63712 21.8907 1.58116 22.1728 1.58116C22.4548 1.58116 22.734 1.63712 22.9943 1.74581C23.2546 1.85449 23.4907 2.01374 23.6889 2.21432C23.9119 2.433 24.0834 2.69854 24.1911 2.99169C24.2987 3.28485 24.3398 3.59828 24.3113 3.90927Z" fill="#007BC1"/>
<path d="M104 28H64C61.7909 28 60 29.7909 60 32V42C60 44.2091 61.7909 46 64 46H104C106.209 46 108 44.2091 108 42V32C108 29.7909 106.209 28 104 28Z" fill="#007BC1"/>
<path d="M66.7422 37.0361H67.7959C68.5026 37.0361 69.0146 36.9049 69.332 36.6426C69.6494 36.3802 69.8081 35.9909 69.8081 35.4746C69.8081 34.9499 69.6367 34.5732 69.2939 34.3447C68.9512 34.1162 68.4349 34.002 67.7451 34.002H66.7422V37.0361ZM66.7422 38.293V42H65.2251V32.7197H67.8467C69.0443 32.7197 69.9308 32.944 70.5063 33.3926C71.0819 33.8411 71.3696 34.5182 71.3696 35.4238C71.3696 36.5791 70.7687 37.4022 69.5669 37.8931L72.1885 42H70.4619L68.2402 38.293H66.7422ZM78.79 42H73.5405V32.7197H78.79V34.002H75.0576V36.5283H78.5552V37.7979H75.0576V40.7114H78.79V42ZM86.5596 42L85.6328 39.4229H82.0845L81.1768 42H79.5771L83.0493 32.6816H84.6997L88.1719 42H86.5596ZM85.2329 38.1152L84.3633 35.5889C84.2998 35.4196 84.2109 35.153 84.0967 34.7891C83.9867 34.4251 83.9105 34.1585 83.8682 33.9893C83.7539 34.5098 83.5868 35.0789 83.3667 35.6968L82.5288 38.1152H85.2329ZM93.3452 33.8877C92.4735 33.8877 91.7879 34.1966 91.2886 34.8145C90.7892 35.4323 90.5396 36.285 90.5396 37.3726C90.5396 38.5109 90.7786 39.3721 91.2568 39.9561C91.7393 40.54 92.4354 40.832 93.3452 40.832C93.7388 40.832 94.1196 40.7939 94.4878 40.7178C94.856 40.6374 95.2389 40.5358 95.6367 40.4131V41.7144C94.9089 41.9894 94.0837 42.127 93.1611 42.127C91.8027 42.127 90.7596 41.7165 90.0317 40.8955C89.3039 40.0703 88.9399 38.8918 88.9399 37.3599C88.9399 36.395 89.1156 35.5508 89.4668 34.8271C89.8223 34.1035 90.3343 33.5492 91.0029 33.1641C91.6715 32.779 92.4565 32.5864 93.3579 32.5864C94.3058 32.5864 95.1818 32.7853 95.9858 33.1831L95.4399 34.4463C95.1268 34.2982 94.7946 34.1691 94.4434 34.0591C94.0964 33.9448 93.7303 33.8877 93.3452 33.8877ZM100.842 42H99.3247V34.021H96.5952V32.7197H103.571V34.021H100.842V42Z" fill="white"/>
<path d="M61.7666 6.15039H65.3965C67.1016 6.15039 68.335 6.40527 69.0967 6.91504C69.8584 7.4248 70.2393 8.23047 70.2393 9.33203C70.2393 10.0938 70.0254 10.7236 69.5977 11.2217C69.1758 11.7139 68.5576 12.0332 67.7432 12.1797V12.2676C69.6943 12.6016 70.6699 13.627 70.6699 15.3438C70.6699 16.4922 70.2803 17.3887 69.501 18.0332C68.7275 18.6777 67.6436 19 66.249 19H61.7666V6.15039ZM63.2607 11.6523H65.7217C66.7764 11.6523 67.5352 11.4883 67.998 11.1602C68.4609 10.8262 68.6924 10.2666 68.6924 9.48145C68.6924 8.76074 68.4346 8.24219 67.9189 7.92578C67.4033 7.60352 66.583 7.44238 65.458 7.44238H63.2607V11.6523ZM63.2607 12.918V17.7256H65.9414C66.9785 17.7256 67.7578 17.5264 68.2793 17.1279C68.8066 16.7236 69.0703 16.0938 69.0703 15.2383C69.0703 14.4414 68.8008 13.8555 68.2617 13.4805C67.7285 13.1055 66.9141 12.918 65.8184 12.918H63.2607Z" fill="#007BC1"/>
<path d="M77.6133 9.19141C78.041 9.19141 78.4248 9.22656 78.7646 9.29688L78.5625 10.6504C78.1641 10.5625 77.8125 10.5186 77.5078 10.5186C76.7285 10.5186 76.0605 10.835 75.5039 11.4678C74.9531 12.1006 74.6777 12.8887 74.6777 13.832V19H73.2188V9.36719H74.4229L74.5898 11.1514H74.6602C75.0176 10.5244 75.4482 10.041 75.9521 9.70117C76.4561 9.36133 77.0098 9.19141 77.6133 9.19141Z" fill="#007BC1"/>
<path d="M82.0254 19H80.5664V9.36719H82.0254V19ZM80.4434 6.75684C80.4434 6.42285 80.5254 6.17969 80.6895 6.02734C80.8535 5.86914 81.0586 5.79004 81.3047 5.79004C81.5391 5.79004 81.7412 5.86914 81.9111 6.02734C82.0811 6.18555 82.166 6.42871 82.166 6.75684C82.166 7.08496 82.0811 7.33105 81.9111 7.49512C81.7412 7.65332 81.5391 7.73242 81.3047 7.73242C81.0586 7.73242 80.8535 7.65332 80.6895 7.49512C80.5254 7.33105 80.4434 7.08496 80.4434 6.75684Z" fill="#007BC1"/>
<path d="M93.0029 9.36719V10.29L91.2188 10.501C91.3828 10.7061 91.5293 10.9756 91.6582 11.3096C91.7871 11.6377 91.8516 12.0098 91.8516 12.4258C91.8516 13.3691 91.5293 14.1221 90.8848 14.6846C90.2402 15.2471 89.3555 15.5283 88.2305 15.5283C87.9434 15.5283 87.6738 15.5049 87.4219 15.458C86.8008 15.7861 86.4902 16.1992 86.4902 16.6973C86.4902 16.9609 86.5986 17.1572 86.8154 17.2861C87.0322 17.4092 87.4043 17.4707 87.9316 17.4707H89.6367C90.6797 17.4707 91.4795 17.6904 92.0361 18.1299C92.5986 18.5693 92.8799 19.208 92.8799 20.0459C92.8799 21.1123 92.4521 21.9238 91.5967 22.4805C90.7412 23.043 89.4932 23.3242 87.8525 23.3242C86.5928 23.3242 85.6201 23.0898 84.9346 22.6211C84.2549 22.1523 83.915 21.4902 83.915 20.6348C83.915 20.0488 84.1025 19.542 84.4775 19.1143C84.8525 18.6865 85.3799 18.3965 86.0596 18.2441C85.8135 18.1328 85.6055 17.96 85.4355 17.7256C85.2715 17.4912 85.1895 17.2188 85.1895 16.9082C85.1895 16.5566 85.2832 16.249 85.4707 15.9854C85.6582 15.7217 85.9541 15.4668 86.3584 15.2207C85.8604 15.0156 85.4531 14.667 85.1367 14.1748C84.8262 13.6826 84.6709 13.1201 84.6709 12.4873C84.6709 11.4326 84.9873 10.6211 85.6201 10.0527C86.2529 9.47852 87.1494 9.19141 88.3096 9.19141C88.8135 9.19141 89.2676 9.25 89.6719 9.36719H93.0029ZM85.3213 20.6172C85.3213 21.1387 85.541 21.5342 85.9805 21.8037C86.4199 22.0732 87.0498 22.208 87.8701 22.208C89.0947 22.208 90 22.0234 90.5859 21.6543C91.1777 21.291 91.4736 20.7959 91.4736 20.1689C91.4736 19.6475 91.3125 19.2842 90.9902 19.0791C90.668 18.8799 90.0615 18.7803 89.1709 18.7803H87.4219C86.7598 18.7803 86.2441 18.9385 85.875 19.2549C85.5059 19.5713 85.3213 20.0254 85.3213 20.6172ZM86.1123 12.4521C86.1123 13.126 86.3027 13.6357 86.6836 13.9814C87.0645 14.3271 87.5947 14.5 88.2744 14.5C89.6982 14.5 90.4102 13.8086 90.4102 12.4258C90.4102 10.9785 89.6895 10.2549 88.248 10.2549C87.5625 10.2549 87.0352 10.4395 86.666 10.8086C86.2969 11.1777 86.1123 11.7256 86.1123 12.4521Z" fill="#007BC1"/>
<path d="M101.572 19V12.7686C101.572 11.9834 101.394 11.3975 101.036 11.0107C100.679 10.624 100.119 10.4307 99.3574 10.4307C98.3438 10.4307 97.6025 10.7061 97.1338 11.2568C96.6709 11.8076 96.4395 12.71 96.4395 13.9639V19H94.9805V5.32422H96.4395V9.46387C96.4395 9.96191 96.416 10.375 96.3691 10.7031H96.457C96.7441 10.2402 97.1514 9.87695 97.6787 9.61328C98.2119 9.34375 98.8184 9.20898 99.498 9.20898C100.676 9.20898 101.558 9.49023 102.144 10.0527C102.735 10.6094 103.031 11.4971 103.031 12.7158V19H101.572Z" fill="#007BC1"/>
<path d="M109.148 17.9717C109.406 17.9717 109.655 17.9541 109.896 17.9189C110.136 17.8779 110.326 17.8369 110.467 17.7959V18.9121C110.309 18.9883 110.074 19.0498 109.764 19.0967C109.459 19.1494 109.184 19.1758 108.938 19.1758C107.074 19.1758 106.143 18.1943 106.143 16.2314V10.501H104.763V9.79785L106.143 9.19141L106.758 7.13477H107.602V9.36719H110.396V10.501H107.602V16.1699C107.602 16.75 107.739 17.1953 108.015 17.5059C108.29 17.8164 108.668 17.9717 109.148 17.9717Z" fill="#007BC1"/>
<path d="M113.859 19H112.4V5.32422H113.859V19Z" fill="#007BC1"/>
<path d="M122.877 19L122.587 17.6289H122.517C122.036 18.2324 121.556 18.6426 121.075 18.8594C120.601 19.0703 120.006 19.1758 119.291 19.1758C118.336 19.1758 117.586 18.9297 117.041 18.4375C116.502 17.9453 116.232 17.2451 116.232 16.3369C116.232 14.3916 117.788 13.3721 120.899 13.2783L122.534 13.2256V12.6279C122.534 11.8721 122.37 11.3154 122.042 10.958C121.72 10.5947 121.201 10.4131 120.486 10.4131C119.684 10.4131 118.775 10.6592 117.762 11.1514L117.313 10.0352C117.788 9.77734 118.307 9.5752 118.869 9.42871C119.438 9.28223 120.006 9.20898 120.574 9.20898C121.723 9.20898 122.572 9.46387 123.123 9.97363C123.68 10.4834 123.958 11.3008 123.958 12.4258V19H122.877ZM119.581 17.9717C120.489 17.9717 121.201 17.7227 121.717 17.2246C122.238 16.7266 122.499 16.0293 122.499 15.1328V14.2627L121.04 14.3242C119.88 14.3652 119.042 14.5469 118.526 14.8691C118.017 15.1855 117.762 15.6807 117.762 16.3545C117.762 16.8818 117.92 17.2832 118.236 17.5586C118.559 17.834 119.007 17.9717 119.581 17.9717Z" fill="#007BC1"/>
<path d="M125.443 9.36719H127.008L129.117 14.8604C129.58 16.1143 129.867 17.0195 129.979 17.5762H130.049C130.125 17.2773 130.283 16.7676 130.523 16.0469C130.77 15.3203 131.566 13.0938 132.914 9.36719H134.479L130.339 20.3359C129.929 21.4199 129.448 22.1875 128.897 22.6387C128.353 23.0957 127.682 23.3242 126.885 23.3242C126.439 23.3242 126 23.2744 125.566 23.1748V22.0059C125.889 22.0762 126.249 22.1113 126.647 22.1113C127.649 22.1113 128.364 21.5488 128.792 20.4238L129.328 19.0527L125.443 9.36719Z" fill="#007BC1"/>
<path d="M140.112 19.1758C138.688 19.1758 137.563 18.7422 136.737 17.875C135.917 17.0078 135.507 15.8037 135.507 14.2627C135.507 12.71 135.888 11.4766 136.649 10.5625C137.417 9.64844 138.445 9.19141 139.734 9.19141C140.941 9.19141 141.896 9.58984 142.6 10.3867C143.303 11.1777 143.654 12.2236 143.654 13.5244V14.4473H137.019C137.048 15.5781 137.332 16.4365 137.871 17.0225C138.416 17.6084 139.181 17.9014 140.165 17.9014C141.202 17.9014 142.228 17.6846 143.241 17.251V18.5518C142.726 18.7744 142.236 18.9326 141.773 19.0264C141.316 19.126 140.763 19.1758 140.112 19.1758ZM139.717 10.4131C138.943 10.4131 138.325 10.665 137.862 11.1689C137.405 11.6729 137.136 12.3701 137.054 13.2607H142.09C142.09 12.3408 141.885 11.6377 141.475 11.1514C141.064 10.6592 140.479 10.4131 139.717 10.4131Z" fill="#007BC1"/>
<path d="M150.545 9.19141C150.973 9.19141 151.356 9.22656 151.696 9.29688L151.494 10.6504C151.096 10.5625 150.744 10.5186 150.439 10.5186C149.66 10.5186 148.992 10.835 148.436 11.4678C147.885 12.1006 147.609 12.8887 147.609 13.832V19H146.15V9.36719H147.354L147.521 11.1514H147.592C147.949 10.5244 148.38 10.041 148.884 9.70117C149.388 9.36133 149.941 9.19141 150.545 9.19141Z" fill="#007BC1"/>
<path d="M168.703 6.15039V14.4648C168.703 15.4141 168.489 16.2461 168.062 16.9609C167.64 17.6758 167.027 18.2236 166.225 18.6045C165.422 18.9854 164.473 19.1758 163.377 19.1758C161.725 19.1758 160.441 18.7539 159.527 17.9102C158.613 17.0605 158.156 15.9004 158.156 14.4297V6.15039H160.872V14.0166C160.872 15.0068 161.071 15.7334 161.47 16.1963C161.868 16.6592 162.527 16.8906 163.447 16.8906C164.338 16.8906 164.982 16.6592 165.381 16.1963C165.785 15.7275 165.987 14.9951 165.987 13.999V6.15039H168.703Z" fill="#007BC1"/>
<path d="M171.85 19V6.15039H174.574V19H171.85Z" fill="#007BC1"/>
</g>
<defs>
<clipPath id="clip0_503_74204">
<rect width="220" height="46" fill="white"/>
</clipPath>
</defs>
</svg>
