<svg width="220" height="46" viewBox="0 0 220 46" fill="none" xmlns="http://www.w3.org/2000/svg">
<g clip-path="url(#clip0_503_74031)">
<path d="M21.5174 31.2403C25.2983 31.2403 28.3634 28.193 28.3634 24.434C28.3634 20.675 25.2983 17.6277 21.5174 17.6277C17.7364 17.6277 14.6714 20.675 14.6714 24.434C14.6714 28.193 17.7364 31.2403 21.5174 31.2403Z" fill="#007BC1"/>
<path d="M41.0622 20.0907C41.9353 24.0044 41.6091 28.0904 40.1261 31.816C38.6431 35.5415 36.0721 38.7339 32.7482 40.977C29.4244 43.22 25.5018 44.4097 21.492 44.3909C17.4821 44.3721 13.571 43.1457 10.2683 40.8716C6.96562 38.5974 4.42468 35.3811 2.97668 31.6418C1.52868 27.9024 1.24079 23.8136 2.15055 19.9083C3.06031 16.0029 5.12552 12.4623 8.07695 9.74781C11.0284 7.03335 14.7291 5.27102 18.6968 4.69054C18.8665 5.27547 19.1807 5.80827 19.6105 6.23983C20.2951 6.91988 21.221 7.30155 22.186 7.30155C23.151 7.30155 24.0769 6.91988 24.7615 6.23983C25.3408 5.66377 25.7053 4.90672 25.7944 4.09466C25.9243 3.13414 25.6674 2.16134 25.0801 1.39027C24.4928 0.619204 23.6232 0.11302 22.6627 -0.0169215C21.7022 -0.146864 20.7294 0.11008 19.9583 0.697385C19.1873 1.28469 18.6811 2.15425 18.5511 3.11476C14.2608 3.70878 10.2491 5.58215 7.03946 8.49046C3.82984 11.3988 1.57133 15.207 0.558617 19.4182C-0.454099 23.6294 -0.174 28.0481 1.36237 32.0977C2.89874 36.1474 5.62004 39.6399 9.17121 42.1196C12.7224 44.5994 16.9385 45.9512 21.2695 45.9987C25.6006 46.0462 29.8453 44.7872 33.45 42.386C37.0547 39.9847 39.852 36.5527 41.4768 32.5377C43.1017 28.5228 43.4786 24.1113 42.5585 19.8789C41.6493 15.9417 39.616 12.3535 36.7056 9.55028C39.0232 12.6403 40.5218 16.2662 41.0622 20.0907ZM24.3113 3.90927C24.2736 4.40941 24.0574 4.87934 23.7022 5.23345C23.4102 5.52895 23.0388 5.73333 22.6329 5.82177C22.2271 5.91022 21.8042 5.87892 21.4158 5.73169C21.0274 5.58445 20.6901 5.32761 20.4448 4.99235C20.1996 4.65709 20.0569 4.25783 20.0342 3.84306C20.0198 3.54331 20.0676 3.24382 20.1748 2.96349C20.2819 2.68316 20.4459 2.42807 20.6566 2.21432C20.8549 2.01374 21.091 1.85449 21.3512 1.74581C21.6115 1.63712 21.8907 1.58116 22.1728 1.58116C22.4548 1.58116 22.734 1.63712 22.9943 1.74581C23.2546 1.85449 23.4907 2.01374 23.6889 2.21432C23.9119 2.433 24.0834 2.69854 24.191 2.99169C24.2987 3.28485 24.3398 3.59828 24.3113 3.90927Z" fill="#007BC1"/>
<path d="M104 28H64C61.7909 28 60 29.7909 60 32V42C60 44.2091 61.7909 46 64 46H104C106.209 46 108 44.2091 108 42V32C108 29.7909 106.209 28 104 28Z" fill="#007BC1"/>
<path d="M66.7422 37.0361H67.7959C68.5026 37.0361 69.0146 36.9049 69.332 36.6426C69.6494 36.3802 69.8081 35.9909 69.8081 35.4746C69.8081 34.9499 69.6367 34.5732 69.2939 34.3447C68.9512 34.1162 68.4349 34.002 67.7451 34.002H66.7422V37.0361ZM66.7422 38.293V42H65.2251V32.7197H67.8467C69.0443 32.7197 69.9308 32.944 70.5063 33.3926C71.0819 33.8411 71.3696 34.5182 71.3696 35.4238C71.3696 36.5791 70.7687 37.4022 69.5669 37.8931L72.1885 42H70.4619L68.2402 38.293H66.7422ZM78.79 42H73.5405V32.7197H78.79V34.002H75.0576V36.5283H78.5552V37.7979H75.0576V40.7114H78.79V42ZM86.5596 42L85.6328 39.4229H82.0845L81.1768 42H79.5771L83.0493 32.6816H84.6997L88.1719 42H86.5596ZM85.2329 38.1152L84.3633 35.5889C84.2998 35.4196 84.2109 35.153 84.0967 34.7891C83.9867 34.4251 83.9105 34.1585 83.8682 33.9893C83.7539 34.5098 83.5868 35.0789 83.3667 35.6968L82.5288 38.1152H85.2329ZM93.3452 33.8877C92.4735 33.8877 91.7879 34.1966 91.2886 34.8145C90.7892 35.4323 90.5396 36.285 90.5396 37.3726C90.5396 38.5109 90.7786 39.3721 91.2568 39.9561C91.7393 40.54 92.4354 40.832 93.3452 40.832C93.7388 40.832 94.1196 40.7939 94.4878 40.7178C94.856 40.6374 95.2389 40.5358 95.6367 40.4131V41.7144C94.9089 41.9894 94.0837 42.127 93.1611 42.127C91.8027 42.127 90.7596 41.7165 90.0317 40.8955C89.3039 40.0703 88.9399 38.8918 88.9399 37.3599C88.9399 36.395 89.1156 35.5508 89.4668 34.8271C89.8223 34.1035 90.3343 33.5492 91.0029 33.1641C91.6715 32.779 92.4565 32.5864 93.3579 32.5864C94.3058 32.5864 95.1818 32.7853 95.9858 33.1831L95.4399 34.4463C95.1268 34.2982 94.7946 34.1691 94.4434 34.0591C94.0964 33.9448 93.7303 33.8877 93.3452 33.8877ZM100.842 42H99.3247V34.021H96.5952V32.7197H103.571V34.021H100.842V42Z" fill="white"/>
<path d="M122.982 42L122.056 39.4229H118.507L117.6 42H116L119.472 32.6816H121.123L124.595 42H122.982ZM121.656 38.1152L120.786 35.5889C120.723 35.4196 120.634 35.153 120.52 34.7891C120.41 34.4251 120.333 34.1585 120.291 33.9893C120.177 34.5098 120.01 35.0789 119.79 35.6968L118.952 38.1152H121.656ZM125.82 42V32.7197H127.337V40.6987H131.266V42H125.82ZM139.01 35.5254C139.01 36.4945 138.693 37.2371 138.058 37.7534C137.423 38.2697 136.52 38.5278 135.348 38.5278H134.383V42H132.866V32.7197H135.538C136.698 32.7197 137.565 32.9567 138.141 33.4307C138.72 33.9046 139.01 34.6029 139.01 35.5254ZM134.383 37.252H135.189C135.968 37.252 136.539 37.1165 136.903 36.8457C137.267 36.5749 137.449 36.1517 137.449 35.5762C137.449 35.043 137.286 34.6452 136.96 34.3828C136.634 34.1204 136.126 33.9893 135.437 33.9893H134.383V37.252ZM148.183 42H146.659V37.8169H142.381V42H140.864V32.7197H142.381V36.5156H146.659V32.7197H148.183V42ZM156.384 42L155.457 39.4229H151.909L151.001 42H149.401L152.874 32.6816H154.524L157.996 42H156.384ZM155.057 38.1152L154.188 35.5889C154.124 35.4196 154.035 35.153 153.921 34.7891C153.811 34.4251 153.735 34.1585 153.692 33.9893C153.578 34.5098 153.411 35.0789 153.191 35.6968L152.353 38.1152H155.057Z" fill="#007BC1"/>
<path d="M61.4854 17V4.20312H65.6689C67.0576 4.20312 68.1006 4.49023 68.7979 5.06445C69.501 5.63867 69.8525 6.48828 69.8525 7.61328C69.8525 8.21094 69.6826 8.74121 69.3428 9.2041C69.0029 9.66113 68.54 10.0156 67.9541 10.2676C68.6455 10.4609 69.1904 10.8301 69.5889 11.375C69.9932 11.9141 70.1953 12.5586 70.1953 13.3086C70.1953 14.457 69.8232 15.3594 69.0791 16.0156C68.335 16.6719 67.2832 17 65.9238 17H61.4854ZM63.1729 11.0146V15.6201H65.959C66.7441 15.6201 67.3623 15.418 67.8135 15.0137C68.2705 14.6035 68.499 14.041 68.499 13.3262C68.499 11.7852 67.6611 11.0146 65.9854 11.0146H63.1729ZM63.1729 9.66113H65.7217C66.46 9.66113 67.0488 9.47656 67.4883 9.10742C67.9336 8.73828 68.1562 8.2373 68.1562 7.60449C68.1562 6.90137 67.9512 6.3916 67.541 6.0752C67.1309 5.75293 66.5068 5.5918 65.6689 5.5918H63.1729V9.66113ZM77.042 8.94922C76.7959 8.9082 76.5293 8.8877 76.2422 8.8877C75.1758 8.8877 74.4521 9.3418 74.0713 10.25V17H72.4453V7.49023H74.0273L74.0537 8.58887C74.5869 7.73926 75.3428 7.31445 76.3213 7.31445C76.6377 7.31445 76.8779 7.35547 77.042 7.4375V8.94922ZM80.3115 17H78.6855V7.49023H80.3115V17ZM78.5537 4.96777C78.5537 4.7041 78.6328 4.48145 78.791 4.2998C78.9551 4.11816 79.1953 4.02734 79.5117 4.02734C79.8281 4.02734 80.0684 4.11816 80.2324 4.2998C80.3965 4.48145 80.4785 4.7041 80.4785 4.96777C80.4785 5.23145 80.3965 5.45117 80.2324 5.62695C80.0684 5.80273 79.8281 5.89062 79.5117 5.89062C79.1953 5.89062 78.9551 5.80273 78.791 5.62695C78.6328 5.45117 78.5537 5.23145 78.5537 4.96777ZM82.5352 12.166C82.5352 10.6836 82.8779 9.50586 83.5635 8.63281C84.249 7.75391 85.1572 7.31445 86.2881 7.31445C87.4482 7.31445 88.3535 7.72461 89.0039 8.54492L89.083 7.49023H90.5684V16.7715C90.5684 18.002 90.2021 18.9717 89.4697 19.6807C88.7432 20.3896 87.7646 20.7441 86.5342 20.7441C85.8486 20.7441 85.1777 20.5977 84.5215 20.3047C83.8652 20.0117 83.3643 19.6104 83.0186 19.1006L83.8623 18.125C84.5596 18.9863 85.4121 19.417 86.4199 19.417C87.2109 19.417 87.8262 19.1943 88.2656 18.749C88.7109 18.3037 88.9336 17.6768 88.9336 16.8682V16.0508C88.2832 16.8008 87.3955 17.1758 86.2705 17.1758C85.1572 17.1758 84.2549 16.7275 83.5635 15.8311C82.8779 14.9346 82.5352 13.7129 82.5352 12.166ZM84.1699 12.3506C84.1699 13.4229 84.3896 14.2666 84.8291 14.8818C85.2686 15.4912 85.8838 15.7959 86.6748 15.7959C87.7002 15.7959 88.4531 15.3301 88.9336 14.3984V10.0566C88.4355 9.14844 87.6885 8.69434 86.6924 8.69434C85.9014 8.69434 85.2832 9.00195 84.8379 9.61719C84.3926 10.2324 84.1699 11.1436 84.1699 12.3506ZM94.6553 8.6416C95.376 7.75684 96.3135 7.31445 97.4678 7.31445C99.4775 7.31445 100.491 8.44824 100.509 10.7158V17H98.8828V10.707C98.877 10.0215 98.7188 9.51465 98.4082 9.18652C98.1035 8.8584 97.626 8.69434 96.9756 8.69434C96.4482 8.69434 95.9854 8.83496 95.5869 9.11621C95.1885 9.39746 94.8779 9.7666 94.6553 10.2236V17H93.0293V3.5H94.6553V8.6416ZM105.149 5.1875V7.49023H106.925V8.74707H105.149V14.6445C105.149 15.0254 105.229 15.3125 105.387 15.5059C105.545 15.6934 105.814 15.7871 106.195 15.7871C106.383 15.7871 106.641 15.752 106.969 15.6816V17C106.541 17.1172 106.125 17.1758 105.721 17.1758C104.994 17.1758 104.446 16.9561 104.077 16.5166C103.708 16.0771 103.523 15.4531 103.523 14.6445V8.74707H101.792V7.49023H103.523V5.1875H105.149ZM110.599 17H108.973V3.5H110.599V17ZM119.08 17C118.986 16.8125 118.91 16.4785 118.852 15.998C118.096 16.7832 117.193 17.1758 116.145 17.1758C115.207 17.1758 114.437 16.9121 113.833 16.3848C113.235 15.8516 112.937 15.1777 112.937 14.3633C112.937 13.373 113.312 12.6055 114.062 12.0605C114.817 11.5098 115.878 11.2344 117.243 11.2344H118.825V10.4873C118.825 9.91895 118.655 9.46777 118.315 9.13379C117.976 8.79395 117.475 8.62402 116.812 8.62402C116.232 8.62402 115.746 8.77051 115.354 9.06348C114.961 9.35645 114.765 9.71094 114.765 10.127H113.13C113.13 9.65234 113.297 9.19531 113.631 8.75586C113.971 8.31055 114.428 7.95898 115.002 7.70117C115.582 7.44336 116.218 7.31445 116.909 7.31445C118.005 7.31445 118.863 7.58984 119.484 8.14062C120.105 8.68555 120.428 9.43848 120.451 10.3994V14.7764C120.451 15.6494 120.562 16.3438 120.785 16.8594V17H119.08ZM116.382 15.7607C116.892 15.7607 117.375 15.6289 117.832 15.3652C118.289 15.1016 118.62 14.7588 118.825 14.3369V12.3857H117.551C115.559 12.3857 114.562 12.9688 114.562 14.1348C114.562 14.6445 114.732 15.043 115.072 15.3301C115.412 15.6172 115.849 15.7607 116.382 15.7607ZM125.971 14.6182L128.186 7.49023H129.926L126.103 18.4678C125.511 20.0498 124.57 20.8408 123.281 20.8408L122.974 20.8145L122.367 20.7002V19.3818L122.807 19.417C123.357 19.417 123.785 19.3057 124.09 19.083C124.4 18.8604 124.655 18.4531 124.854 17.8613L125.215 16.8945L121.822 7.49023H123.598L125.971 14.6182ZM135.208 17.1758C133.919 17.1758 132.87 16.7539 132.062 15.9102C131.253 15.0605 130.849 13.9268 130.849 12.5088V12.21C130.849 11.2666 131.027 10.4258 131.385 9.6875C131.748 8.94336 132.252 8.36328 132.896 7.94727C133.547 7.52539 134.25 7.31445 135.006 7.31445C136.242 7.31445 137.203 7.72168 137.889 8.53613C138.574 9.35059 138.917 10.5166 138.917 12.0342V12.7109H132.475C132.498 13.6484 132.771 14.4072 133.292 14.9873C133.819 15.5615 134.487 15.8486 135.296 15.8486C135.87 15.8486 136.356 15.7314 136.755 15.4971C137.153 15.2627 137.502 14.9521 137.801 14.5654L138.794 15.3389C137.997 16.5635 136.802 17.1758 135.208 17.1758ZM135.006 8.65039C134.35 8.65039 133.799 8.89062 133.354 9.37109C132.908 9.8457 132.633 10.5137 132.527 11.375H137.291V11.252C137.244 10.4258 137.021 9.78711 136.623 9.33594C136.225 8.87891 135.686 8.65039 135.006 8.65039ZM145.403 8.94922C145.157 8.9082 144.891 8.8877 144.604 8.8877C143.537 8.8877 142.813 9.3418 142.433 10.25V17H140.807V7.49023H142.389L142.415 8.58887C142.948 7.73926 143.704 7.31445 144.683 7.31445C144.999 7.31445 145.239 7.35547 145.403 7.4375V8.94922ZM160.969 4.20312V12.6318C160.969 14.0322 160.529 15.1396 159.65 15.9541C158.777 16.7686 157.582 17.1758 156.064 17.1758C154.57 17.1758 153.384 16.7803 152.505 15.9893C151.626 15.1982 151.178 14.1113 151.16 12.7285V4.20312H153.797V12.6494C153.797 13.4873 153.996 14.0996 154.395 14.4863C154.799 14.8672 155.355 15.0576 156.064 15.0576C157.547 15.0576 158.3 14.2783 158.323 12.7197V4.20312H160.969ZM165.935 17H163.298V4.20312H165.935V17Z" fill="#007BC1"/>
</g>
<defs>
<clipPath id="clip0_503_74031">
<rect width="220" height="46" fill="white"/>
</clipPath>
</defs>
</svg>
